<?xml version="1.0" encoding="UTF-8"?>
<!DOCTYPE svg PUBLIC "-//W3C//DTD SVG 1.1//EN" "http://www.w3.org/Graphics/SVG/1.1/DTD/svg11.dtd">
<svg xmlns="http://www.w3.org/2000/svg" version="1.1" width="1280px" height="1280px" style="shape-rendering:geometricPrecision; text-rendering:geometricPrecision; image-rendering:optimizeQuality; fill-rule:evenodd; clip-rule:evenodd" xmlns:xlink="http://www.w3.org/1999/xlink">
<g><path style="opacity:1" fill="#f9f9f9" d="M -0.5,-0.5 C 426.167,-0.5 852.833,-0.5 1279.5,-0.5C 1279.5,426.167 1279.5,852.833 1279.5,1279.5C 852.833,1279.5 426.167,1279.5 -0.5,1279.5C -0.5,852.833 -0.5,426.167 -0.5,-0.5 Z"/></g>
<g><path style="opacity:1" fill="#000000" d="M 168.5,858.5 C 168.5,752.833 168.5,647.167 168.5,541.5C 229.669,541.832 290.669,541.499 351.5,540.5C 386.168,540.333 420.835,540.5 455.5,541C 478.772,543.274 487.605,555.774 482,578.5C 475.932,588.122 467.099,592.955 455.5,593C 391.168,593.5 326.834,593.667 262.5,593.5C 262.5,669.833 262.5,746.167 262.5,822.5C 292.833,822.5 323.167,822.5 353.5,822.5C 353.5,773.5 353.5,724.5 353.5,675.5C 390.168,675.333 426.835,675.5 463.5,676C 489.132,680.447 497.965,694.947 490,719.5C 483.435,728.485 474.601,733.985 463.5,736C 460.854,736.497 458.187,736.664 455.5,736.5C 442.833,736.5 430.167,736.5 417.5,736.5C 417.5,765.167 417.5,793.833 417.5,822.5C 427.681,822.827 437.681,822.494 447.5,821.5C 478.604,822.456 507.938,815.956 535.5,802C 570.286,779.432 586.619,747.099 584.5,705C 581.366,674.663 567.7,650.496 543.5,632.5C 565.821,613.4 575.988,589.067 574,559.5C 569.48,508.335 542.314,476.169 492.5,463C 483.96,460.692 475.293,459.025 466.5,458C 366.851,456.526 267.184,456.026 167.5,456.5C 167.333,443.496 167.5,430.496 168,417.5C 172.612,399.221 184.112,388.055 202.5,384C 349.5,383.333 496.5,383.333 643.5,384C 662.408,387.572 674.241,398.739 679,417.5C 679.5,498.833 679.667,580.166 679.5,661.5C 806.167,661.333 932.834,661.5 1059.5,662C 1078.54,666.05 1092.7,676.55 1102,693.5C 1103.73,697.363 1105.07,701.363 1106,705.5C 1107.64,752.801 1107.97,800.135 1107,847.5C 1100.01,874.494 1082.84,890.327 1055.5,895C 771.167,895.667 486.833,895.667 202.5,895C 182.772,890.769 171.439,878.602 168.5,858.5 Z"/></g>
<g><path style="opacity:1" fill="#323232" d="M 351.5,540.5 C 290.669,541.499 229.669,541.832 168.5,541.5C 168.5,647.167 168.5,752.833 168.5,858.5C 167.501,752.668 167.167,646.668 167.5,540.5C 228.833,540.5 290.167,540.5 351.5,540.5 Z"/></g>
<g><path style="opacity:1" fill="#f1f1f1" d="M 859.5,703.5 C 875.39,702.878 881.557,710.212 878,725.5C 873.422,733.034 866.922,735.367 858.5,732.5C 851.808,727.791 848.975,721.457 850,713.5C 852.022,708.98 855.189,705.647 859.5,703.5 Z"/></g>
<g><path style="opacity:1" fill="#c4c4c4" d="M 455.5,736.5 C 443.431,737.176 431.265,737.842 419,738.5C 418.5,766.165 418.333,793.831 418.5,821.5C 428.167,821.5 437.833,821.5 447.5,821.5C 437.681,822.494 427.681,822.827 417.5,822.5C 417.5,793.833 417.5,765.167 417.5,736.5C 430.167,736.5 442.833,736.5 455.5,736.5 Z"/></g>
<g><path style="opacity:1" fill="#f6f6f6" d="M 719.5,821.5 C 719.813,818.753 719.48,816.086 718.5,813.5C 717.893,813.624 717.56,813.957 717.5,814.5C 708.596,823.091 697.929,825.924 685.5,823C 667.335,816.658 658.335,803.825 658.5,784.5C 658.174,769.319 664.507,757.819 677.5,750C 691.425,744.66 704.759,745.827 717.5,753.5C 718.452,751.955 718.785,750.288 718.5,748.5C 727.167,748.5 735.833,748.5 744.5,748.5C 744.5,772.833 744.5,797.167 744.5,821.5C 736.167,821.5 727.833,821.5 719.5,821.5 Z"/></g>
<g><path style="opacity:1" fill="#f7f7f7" d="M 633.5,746.5 C 640.305,746.225 646.972,747.058 653.5,749C 654.574,749.739 655.241,750.739 655.5,752C 652.508,758.318 649.508,764.651 646.5,771C 641.588,770.12 636.588,769.287 631.5,768.5C 624.46,769.039 619.96,772.706 618,779.5C 617.5,793.496 617.333,807.496 617.5,821.5C 609.167,821.5 600.833,821.5 592.5,821.5C 592.5,797.167 592.5,772.833 592.5,748.5C 600.833,748.5 609.167,748.5 617.5,748.5C 617.335,751.85 617.502,755.183 618,758.5C 622.208,753.109 627.375,749.109 633.5,746.5 Z"/></g>
<g><path style="opacity:1" fill="#949494" d="M 919.5,746.5 C 917.898,748.074 915.898,748.741 913.5,748.5C 915.102,746.926 917.102,746.259 919.5,746.5 Z"/></g>
<g><path style="opacity:1" fill="#f6f6f6" d="M 919.5,746.5 C 926.96,746.233 934.293,747.066 941.5,749C 944.341,750.586 947.007,752.42 949.5,754.5C 950.466,752.604 950.799,750.604 950.5,748.5C 958.833,748.5 967.167,748.5 975.5,748.5C 975.5,772.833 975.5,797.167 975.5,821.5C 967.167,821.5 958.833,821.5 950.5,821.5C 950.808,819.076 950.474,816.743 949.5,814.5C 939.996,822.793 928.996,825.627 916.5,823C 901.693,817.567 892.86,807.067 890,791.5C 887.429,771.298 895.262,756.965 913.5,748.5C 915.898,748.741 917.898,748.074 919.5,746.5 Z"/></g>
<g><path style="opacity:1" fill="#f5f5f5" d="M 750.5,748.5 C 760.5,748.5 770.5,748.5 780.5,748.5C 786.315,761.468 792.149,774.468 798,787.5C 803.721,774.561 809.555,761.728 815.5,749C 825.494,748.5 835.494,748.334 845.5,748.5C 832.851,772.463 820.184,796.463 807.5,820.5C 801.202,821.496 794.868,821.83 788.5,821.5C 776.053,796.936 763.387,772.603 750.5,748.5 Z"/></g>
<g><path style="opacity:1" fill="#f7f7f7" d="M 876.5,748.5 C 876.5,772.833 876.5,797.167 876.5,821.5C 868.167,821.5 859.833,821.5 851.5,821.5C 851.5,797.167 851.5,772.833 851.5,748.5C 859.833,748.5 868.167,748.5 876.5,748.5 Z"/></g>
<g><path style="opacity:1" fill="#070707" d="M 695.5,768.5 C 704.043,766.797 711.21,769.131 717,775.5C 721.611,785.11 719.778,793.277 711.5,800C 692.498,804.986 683.998,797.82 686,778.5C 688.189,774.173 691.355,770.839 695.5,768.5 Z"/></g>
<g><path style="opacity:1" fill="#060606" d="M 927.5,768.5 C 944.337,767.169 951.837,774.836 950,791.5C 944.917,800.091 937.417,803.258 927.5,801C 924.452,800.394 921.952,798.894 920,796.5C 916.836,790.372 916.169,784.038 918,777.5C 920.406,773.592 923.572,770.592 927.5,768.5 Z"/></g>
<g><path style="opacity:1" fill="#838383" d="M 717.5,814.5 C 717.56,813.957 717.893,813.624 718.5,813.5C 719.48,816.086 719.813,818.753 719.5,821.5C 718.833,819.167 718.167,816.833 717.5,814.5 Z"/></g>
<g><path style="opacity:1" fill="#747474" d="M 876.5,748.5 C 877.498,772.994 877.831,797.661 877.5,822.5C 868.651,822.826 859.984,822.493 851.5,821.5C 859.833,821.5 868.167,821.5 876.5,821.5C 876.5,797.167 876.5,772.833 876.5,748.5 Z"/></g>
</svg>
